<svg width="343" height="343" viewBox="0 0 343 343" fill="none" xmlns="http://www.w3.org/2000/svg">
<path d="M343 262.326H0V262.498H343V262.326Z" fill="#EBEBEB"/>
<path d="M308.631 273.364H285.911V273.536H308.631V273.364Z" fill="#EBEBEB"/>
<path d="M206.788 273.453H200.827V273.625H206.788V273.453Z" fill="#EBEBEB"/>
<path d="M285.218 266.998H243.07V267.17H285.218V266.998Z" fill="#EBEBEB"/>
<path d="M154.446 271.045H145.741V271.217H154.446V271.045Z" fill="#EBEBEB"/>
<path d="M139.635 271.045H114.37V271.217H139.635V271.045Z" fill="#EBEBEB"/>
<path d="M53.4325 268.151H35.9875V268.322H53.4325V268.151Z" fill="#EBEBEB"/>
<path d="M108.923 268.151H57.5486V268.322H108.923V268.151Z" fill="#EBEBEB"/>
<path d="M162.582 231.731H30.1222C29.0846 231.729 28.09 231.315 27.3569 230.581C26.6238 229.847 26.212 228.851 26.212 227.814V41.6128C26.2211 40.581 26.6368 39.5945 27.3689 38.8675C28.1011 38.1405 29.0905 37.7318 30.1222 37.73H162.582C163.621 37.73 164.617 38.1427 165.352 38.8773C166.086 39.6119 166.499 40.6082 166.499 41.6471V227.814C166.499 228.853 166.086 229.849 165.352 230.584C164.617 231.318 163.621 231.731 162.582 231.731ZM30.1222 37.8672C29.13 37.869 28.1791 38.2644 27.4782 38.9667C26.7772 39.6689 26.3835 40.6206 26.3835 41.6128V227.814C26.3835 228.806 26.7772 229.758 27.4782 230.46C28.1791 231.162 29.13 231.557 30.1222 231.559H162.582C163.575 231.557 164.526 231.162 165.229 230.46C165.931 229.758 166.326 228.807 166.328 227.814V41.6128C166.326 40.6199 165.931 39.6683 165.229 38.9662C164.526 38.2642 163.575 37.869 162.582 37.8672H30.1222Z" fill="#EBEBEB"/>
<path d="M310.971 231.731H178.504C177.466 231.729 176.471 231.316 175.736 230.582C175.002 229.847 174.589 228.852 174.587 227.814V41.6128C174.598 40.5804 175.015 39.5939 175.748 38.8671C176.482 38.1403 177.472 37.7317 178.504 37.73H310.971C312.001 37.7336 312.989 38.1431 313.72 38.8699C314.45 39.5967 314.865 40.5822 314.874 41.6128V227.814C314.874 228.85 314.463 229.844 313.732 230.579C313 231.313 312.007 231.727 310.971 231.731ZM178.504 37.8672C177.511 37.869 176.56 38.2642 175.858 38.9662C175.156 39.6683 174.76 40.6199 174.759 41.6128V227.814C174.76 228.807 175.156 229.758 175.858 230.46C176.56 231.162 177.511 231.557 178.504 231.559H310.971C311.964 231.557 312.915 231.162 313.617 230.46C314.319 229.758 314.714 228.807 314.716 227.814V41.6128C314.714 40.6199 314.319 39.6683 313.617 38.9662C312.915 38.2642 311.964 37.869 310.971 37.8672H178.504Z" fill="#EBEBEB"/>
<path d="M130.875 171.164L297.601 171.164V49.3783L130.875 49.3783L130.875 171.164Z" fill="#E6E6E6"/>
<path d="M123.507 171.164L295.892 171.164V49.3783L123.507 49.3783L123.507 171.164Z" fill="#F0F0F0"/>
<path d="M285.568 160.846V59.6957L133.818 59.6957V160.846H285.568Z" fill="#FAFAFA"/>
<path d="M248.682 160.84L214.135 59.6957H181.145L215.692 160.84H248.682Z" fill="white"/>
<path d="M208.606 160.84L174.059 59.6957H161.203L195.75 160.84H208.606Z" fill="white"/>
<path d="M135.135 160.846V59.6957H133.825V160.846H135.135Z" fill="#E6E6E6"/>
<path d="M44.295 138.037H103.167L103.167 54.5713L44.295 54.5713L44.295 138.037Z" fill="#E0E0E0"/>
<path d="M40.131 138.037H100.815L100.815 54.5713L40.131 54.5713L40.131 138.037Z" fill="#F5F5F5"/>
<path d="M94.8258 131.451V61.1432H46.1198L46.1198 131.451H94.8258Z" fill="white"/>
<path d="M67.1799 196.47C71.5498 185.686 81.9427 181.673 85.5373 174.861C90.2364 165.943 90.209 152.56 86.2233 147.737C82.7384 143.539 71.2136 171.912 69.9171 175.081C66.36 183.635 64.1344 192.683 63.3178 201.91C63.4138 195.249 63.503 189.13 63.5784 184.411C63.8254 169.017 64.1272 164.064 64.2644 162.541C64.7446 161.793 65.314 160.929 65.6364 160.483C68.4285 156.552 74.6162 151.867 77.71 146.152C82.2239 137.804 81.4968 127.816 78.3274 124.097C75.0141 120.208 69.1625 129.4 66.0549 138.503C62.9473 147.607 64.2713 156.339 63.4001 163.885C63.2217 165.367 63.0296 170.999 62.8581 178.82C61.9115 170.409 60.0318 164.777 56.5538 159.522C52.2732 153.067 48.5756 145.206 45.0496 146.221C41.5235 147.236 43.4169 157.643 46.2089 164.942C48.706 171.445 60.9511 177.935 62.7552 183.162C62.5426 193.754 62.3505 207.172 62.2202 219.678C61.2529 213.223 61.9183 212.681 57.9532 202.795C55.6003 196.923 45.962 189.679 44.7958 193.713C43.6296 197.746 45.3926 205.375 49.0352 210.725C51.9782 215.034 58.502 215.027 60.0112 217.702C60.3611 218.326 61.5273 220.72 62.1927 222.092C62.0349 237.349 61.9663 250.822 62.0418 255.412L62.6729 255.46C62.6729 254.273 62.7209 246.542 62.8444 236.252C64.4291 230.764 75.0964 227.601 78.3892 221.914C81.8192 215.967 84.3162 209.024 82.8345 204.38C81.5997 200.504 71.8585 205.752 67.9414 212.194C65.314 216.474 63.7088 221.036 62.961 227.169C63.0502 220.172 63.1531 212.653 63.2492 205.56C64.0518 203.776 65.856 199.701 67.1799 196.47Z" fill="#E6E6E6"/>
<path d="M73.4431 262.326H51.0247C50.4322 262.326 49.8582 262.121 49.3995 261.746C48.9408 261.371 48.6255 260.849 48.507 260.268L46.9155 252.448H77.5591L75.9676 260.289C75.8424 260.866 75.5238 261.382 75.0646 261.753C74.6054 262.123 74.0332 262.326 73.4431 262.326Z" fill="#F0F0F0"/>
<path d="M78.204 255.46H46.2707C45.9008 255.459 45.5441 255.322 45.2685 255.075C44.9928 254.829 44.8172 254.489 44.7752 254.122L44.0892 248.325C44.0661 248.115 44.0875 247.902 44.1521 247.7C44.2167 247.499 44.3229 247.313 44.464 247.155C44.605 246.997 44.7777 246.871 44.9707 246.784C45.1638 246.697 45.373 246.652 45.5847 246.651H78.8145C79.0265 246.651 79.2362 246.695 79.4298 246.782C79.6234 246.868 79.7966 246.995 79.9378 247.153C80.0791 247.311 80.1853 247.497 80.2494 247.699C80.3136 247.901 80.3342 248.115 80.31 248.325L79.624 254.122C79.5839 254.477 79.4192 254.806 79.1592 255.051C78.8992 255.296 78.5607 255.441 78.204 255.46Z" fill="#F0F0F0"/>
<path d="M278.262 257.326H285.115V183.587H278.262V257.326Z" fill="#F0F0F0"/>
<path d="M138.613 262.237H282.488V257.325H138.613V262.237Z" fill="#F0F0F0"/>
<path d="M278.269 183.587H135.986V257.325H278.269V183.587Z" fill="#F5F5F5"/>
<path d="M279.881 183.587H286.961V178.936H279.881V183.587Z" fill="#E0E0E0"/>
<path d="M279.881 178.936H134.14V183.587H279.881V178.936Z" fill="#EBEBEB"/>
<path d="M268.054 215.404H146.193C144.738 215.404 143.342 214.826 142.313 213.797C141.284 212.767 140.705 211.372 140.705 209.916V194.138C140.705 192.682 141.284 191.287 142.313 190.257C143.342 189.228 144.738 188.65 146.193 188.65H268.054C269.51 188.65 270.906 189.228 271.935 190.257C272.964 191.287 273.542 192.682 273.542 194.138V209.916C273.542 211.372 272.964 212.767 271.935 213.797C270.906 214.826 269.51 215.404 268.054 215.404ZM146.193 190.022C145.102 190.022 144.055 190.456 143.283 191.228C142.511 191.999 142.077 193.046 142.077 194.138V209.916C142.077 211.008 142.511 212.055 143.283 212.826C144.055 213.598 145.102 214.032 146.193 214.032H268.054C269.146 214.032 270.193 213.598 270.965 212.826C271.737 212.055 272.17 211.008 272.17 209.916V194.138C272.17 193.046 271.737 191.999 270.965 191.228C270.193 190.456 269.146 190.022 268.054 190.022H146.193Z" fill="white"/>
<path d="M268.054 248.462H146.193C144.738 248.462 143.342 247.884 142.313 246.855C141.284 245.826 140.705 244.43 140.705 242.974V227.196C140.705 225.741 141.284 224.345 142.313 223.316C143.342 222.287 144.738 221.708 146.193 221.708H268.054C269.51 221.708 270.906 222.287 271.935 223.316C272.964 224.345 273.542 225.741 273.542 227.196V242.974C273.542 244.43 272.964 245.826 271.935 246.855C270.906 247.884 269.51 248.462 268.054 248.462ZM146.193 223.025C145.102 223.025 144.055 223.459 143.283 224.231C142.511 225.003 142.077 226.05 142.077 227.141V242.919C142.077 244.011 142.511 245.058 143.283 245.83C144.055 246.602 145.102 247.035 146.193 247.035H268.054C269.146 247.035 270.193 246.602 270.965 245.83C271.737 245.058 272.17 244.011 272.17 242.919V227.141C272.17 226.05 271.737 225.003 270.965 224.231C270.193 223.459 269.146 223.025 268.054 223.025H146.193Z" fill="white"/>
<path d="M240.361 204.428H173.887C173.415 204.428 172.963 204.241 172.628 203.908C172.294 203.575 172.105 203.123 172.104 202.651V201.348C172.105 200.876 172.294 200.424 172.628 200.091C172.963 199.758 173.415 199.571 173.887 199.571H240.361C240.832 199.571 241.285 199.758 241.619 200.091C241.954 200.424 242.142 200.876 242.144 201.348V202.651C242.142 203.123 241.954 203.575 241.619 203.908C241.285 204.241 240.832 204.428 240.361 204.428ZM173.887 200.998C173.78 201 173.677 201.043 173.6 201.118C173.524 201.193 173.479 201.295 173.476 201.403V202.706C173.479 202.814 173.524 202.915 173.6 202.991C173.677 203.066 173.78 203.109 173.887 203.111H240.361C240.469 203.111 240.572 203.068 240.649 202.993C240.726 202.917 240.77 202.814 240.772 202.706V201.403C240.77 201.295 240.726 201.192 240.649 201.116C240.572 201.04 240.469 200.998 240.361 200.998H173.887Z" fill="white"/>
<path d="M240.361 237.486H173.887C173.415 237.486 172.963 237.299 172.628 236.966C172.294 236.633 172.105 236.181 172.104 235.71V234.406C172.105 233.934 172.294 233.482 172.628 233.149C172.963 232.816 173.415 232.629 173.887 232.629H240.361C240.832 232.629 241.285 232.816 241.619 233.149C241.954 233.482 242.142 233.934 242.144 234.406V235.71C242.142 236.181 241.954 236.633 241.619 236.966C241.285 237.299 240.832 237.486 240.361 237.486ZM173.887 234.001C173.78 234.003 173.677 234.046 173.6 234.121C173.524 234.197 173.479 234.299 173.476 234.406V235.71C173.479 235.817 173.524 235.919 173.6 235.994C173.677 236.07 173.78 236.113 173.887 236.114H240.361C240.469 236.114 240.572 236.072 240.649 235.996C240.726 235.921 240.77 235.818 240.772 235.71V234.406C240.77 234.298 240.726 234.195 240.649 234.12C240.572 234.044 240.469 234.001 240.361 234.001H173.887Z" fill="white"/>
<path d="M168.07 293.306C241.529 293.306 301.078 289.829 301.078 285.541C301.078 281.252 241.529 277.775 168.07 277.775C94.6114 277.775 35.0614 281.252 35.0614 285.541C35.0614 289.829 94.6114 293.306 168.07 293.306Z" fill="#F5F5F5"/>
<path d="M257.106 115.078L256.845 119.117L257.53 119.162L257.791 115.123L257.106 115.078Z" fill="#F96161"/>
<path d="M258.147 98.6742L257.291 111.948L257.976 111.992L258.832 98.7184L258.147 98.6742Z" fill="#F96161"/>
<path d="M250.006 79.3976H169.366C167.296 79.434 165.313 80.2405 163.805 81.6598C162.297 83.0791 161.372 85.0094 161.21 87.074L150.79 247.941C150.713 248.927 150.843 249.918 151.171 250.851C151.498 251.785 152.016 252.64 152.691 253.362C153.366 254.085 154.185 254.659 155.094 255.048C156.003 255.438 156.983 255.634 157.972 255.624H238.598C240.672 255.59 242.659 254.783 244.171 253.363C245.683 251.942 246.611 250.009 246.775 247.941L257.188 87.074C257.264 86.0882 257.135 85.0974 256.807 84.1645C256.48 83.2316 255.962 82.377 255.286 81.6551C254.611 80.9331 253.793 80.3596 252.884 79.971C251.974 79.5823 250.994 79.3871 250.006 79.3976Z" fill="#F96161"/>
<path opacity="0.7" d="M247.447 79.3976H169.366C167.296 79.434 165.313 80.2405 163.805 81.6598C162.297 83.0791 161.372 85.0094 161.21 87.074L150.79 247.941C150.713 248.927 150.843 249.918 151.171 250.851C151.498 251.785 152.016 252.64 152.691 253.362C153.366 254.085 154.185 254.659 155.094 255.048C156.003 255.438 156.983 255.634 157.972 255.624H236.039C238.113 255.59 240.1 254.783 241.612 253.363C243.124 251.942 244.052 250.009 244.216 247.941L254.629 87.074C254.706 86.0882 254.576 85.0974 254.248 84.1645C253.921 83.2316 253.403 82.377 252.728 81.6551C252.052 80.9331 251.234 80.3596 250.325 79.971C249.416 79.5823 248.436 79.3871 247.447 79.3976Z" fill="white"/>
<path d="M240.861 243.736H154.974C154.653 243.736 154.335 243.671 154.04 243.544C153.745 243.417 153.48 243.23 153.26 242.996C153.04 242.762 152.87 242.485 152.761 242.183C152.653 241.881 152.607 241.559 152.628 241.239L162.054 95.6696C162.092 95.075 162.355 94.5174 162.79 94.1097C163.224 93.702 163.797 93.4749 164.393 93.4743H250.287C250.609 93.4746 250.927 93.5408 251.222 93.6688C251.517 93.7968 251.782 93.9839 252.002 94.2185C252.222 94.4531 252.391 94.7303 252.5 95.033C252.608 95.3357 252.654 95.6574 252.633 95.9783L243.208 241.541C243.169 242.136 242.905 242.695 242.469 243.103C242.033 243.511 241.458 243.737 240.861 243.736Z" fill="white"/>
<path d="M221.777 88.7135H190.557C190.396 88.715 190.237 88.683 190.09 88.6196C189.942 88.5563 189.809 88.463 189.7 88.3456C189.59 88.2282 189.506 88.0893 189.453 87.9377C189.4 87.7861 189.379 87.6252 189.391 87.465C189.422 87.1323 189.574 86.8226 189.818 86.5939C190.062 86.3653 190.381 86.2335 190.715 86.2233H221.935C222.095 86.221 222.254 86.252 222.402 86.3146C222.549 86.3772 222.682 86.4698 222.792 86.5867C222.902 86.7036 222.986 86.842 223.039 86.9933C223.092 87.1445 223.113 87.3052 223.101 87.465C223.071 87.7989 222.92 88.1103 222.676 88.3404C222.432 88.5704 222.112 88.7031 221.777 88.7135Z" fill="white"/>
<path d="M197.41 249.848C197.36 250.67 197 251.443 196.403 252.011C195.806 252.578 195.017 252.899 194.193 252.908C193.797 252.911 193.405 252.833 193.041 252.679C192.677 252.524 192.348 252.296 192.076 252.009C191.804 251.722 191.594 251.382 191.459 251.01C191.324 250.639 191.267 250.243 191.291 249.848C191.343 249.027 191.703 248.256 192.3 247.69C192.897 247.124 193.686 246.804 194.508 246.795C194.904 246.791 195.296 246.868 195.66 247.022C196.024 247.175 196.352 247.403 196.625 247.689C196.897 247.976 197.107 248.315 197.242 248.687C197.378 249.058 197.435 249.454 197.41 249.848Z" fill="white"/>
<path opacity="0.2" d="M231.504 133.77H158.164L153.499 205.731H231.504C233.54 205.728 235.491 204.918 236.931 203.479C238.371 202.041 239.182 200.09 239.188 198.055V141.474C239.189 139.434 238.381 137.476 236.94 136.032C235.5 134.587 233.544 133.774 231.504 133.77Z" fill="#F96161"/>
<path d="M224.672 127.397H134.792C130.549 127.397 127.109 130.837 127.109 135.08V191.682C127.109 195.925 130.549 199.365 134.792 199.365H224.672C228.915 199.365 232.355 195.925 232.355 191.682V135.08C232.355 130.837 228.915 127.397 224.672 127.397Z" fill="#F96161"/>
<path d="M124.653 126.567C124.473 126.566 124.301 126.495 124.173 126.368L122.938 125.14C122.809 125.011 122.736 124.836 122.736 124.653C122.736 124.47 122.809 124.295 122.938 124.166C123.067 124.037 123.242 123.964 123.425 123.964C123.608 123.964 123.783 124.037 123.912 124.166L125.14 125.401C125.268 125.529 125.34 125.703 125.34 125.884C125.34 126.066 125.268 126.24 125.14 126.368C125.076 126.432 125 126.482 124.916 126.516C124.833 126.55 124.743 126.568 124.653 126.567Z" fill="#F96161"/>
<path d="M122.794 130.875H121.058C120.876 130.875 120.702 130.803 120.573 130.674C120.445 130.546 120.372 130.371 120.372 130.189C120.372 130.007 120.445 129.833 120.573 129.704C120.702 129.575 120.876 129.503 121.058 129.503H122.794C122.976 129.503 123.15 129.575 123.279 129.704C123.408 129.833 123.48 130.007 123.48 130.189C123.48 130.371 123.408 130.546 123.279 130.674C123.15 130.803 122.976 130.875 122.794 130.875Z" fill="#F96161"/>
<path d="M129.023 124.715C128.849 124.715 128.681 124.65 128.554 124.531C128.427 124.413 128.349 124.25 128.337 124.077L128.213 122.341C128.207 122.251 128.218 122.161 128.247 122.075C128.275 121.989 128.321 121.91 128.38 121.842C128.439 121.773 128.511 121.718 128.592 121.677C128.673 121.637 128.761 121.613 128.851 121.607C129.032 121.596 129.21 121.657 129.347 121.776C129.483 121.896 129.566 122.064 129.579 122.245L129.709 123.981C129.715 124.071 129.704 124.161 129.676 124.247C129.647 124.333 129.602 124.412 129.543 124.48C129.483 124.549 129.411 124.604 129.33 124.645C129.249 124.685 129.161 124.709 129.071 124.715H129.023Z" fill="#F96161"/>
<path d="M187.408 191.963L215.006 219.554V191.963H187.408Z" fill="#F96161"/>
<path d="M194.975 179.876L193.603 174.052C193.256 172.521 193.256 170.932 193.603 169.401L195.51 161.107C196.29 157.57 195.868 153.874 194.309 150.605C192.751 147.335 190.146 144.68 186.908 143.058C186.968 142.906 187.021 142.75 187.065 142.592C187.178 142.089 187.19 141.568 187.102 141.061C187.013 140.553 186.826 140.067 186.549 139.632C186.273 139.196 185.914 138.82 185.492 138.523C185.071 138.226 184.595 138.016 184.091 137.903C183.588 137.791 183.068 137.778 182.56 137.867C182.052 137.955 181.567 138.143 181.131 138.419C180.696 138.695 180.319 139.054 180.022 139.476C179.726 139.898 179.515 140.374 179.403 140.877C179.369 141.037 179.348 141.2 179.341 141.364C175.72 141.449 172.232 142.739 169.427 145.031C166.623 147.322 164.663 150.483 163.858 154.014L161.999 162.314C161.657 163.843 160.978 165.275 160.009 166.506L156.312 171.205C155.95 171.666 155.711 172.211 155.617 172.789C155.523 173.367 155.576 173.96 155.773 174.512C155.969 175.064 156.302 175.557 156.741 175.946C157.179 176.334 157.709 176.606 158.281 176.734L190.866 184.033C191.435 184.156 192.027 184.134 192.585 183.968C193.144 183.801 193.652 183.497 194.061 183.082C194.471 182.668 194.769 182.157 194.929 181.596C195.089 181.036 195.105 180.444 194.975 179.876Z" fill="white"/>
<path d="M170.368 181.673C170.12 181.619 169.863 181.626 169.618 181.695C169.374 181.763 169.15 181.891 168.967 182.067C168.784 182.242 168.647 182.461 168.568 182.702C168.49 182.943 168.472 183.2 168.516 183.45C168.703 184.552 169.214 185.574 169.984 186.385C170.753 187.196 171.747 187.759 172.838 188.004C173.929 188.248 175.068 188.162 176.11 187.757C177.152 187.351 178.05 186.645 178.689 185.728C178.835 185.521 178.928 185.281 178.96 185.03C178.992 184.779 178.961 184.524 178.871 184.288C178.781 184.051 178.634 183.84 178.443 183.674C178.252 183.508 178.023 183.391 177.777 183.333L170.368 181.673Z" fill="white"/>
<path d="M145.343 170.128C145.173 170.129 145.005 170.088 144.855 170.008C144.706 169.927 144.578 169.811 144.485 169.668C141.245 164.814 140.066 158.872 141.207 153.148C142.348 147.425 145.716 142.389 150.57 139.148C150.798 138.997 151.076 138.943 151.343 138.997C151.611 139.051 151.846 139.209 151.997 139.436C152.148 139.664 152.203 139.942 152.149 140.209C152.094 140.477 151.936 140.712 151.709 140.863C147.315 143.806 144.269 148.373 143.24 153.561C142.211 158.748 143.283 164.132 146.221 168.53C146.373 168.756 146.428 169.034 146.376 169.301C146.323 169.569 146.166 169.804 145.94 169.956C145.763 170.073 145.555 170.133 145.343 170.128Z" fill="white"/>
<path d="M149.699 167.206C149.53 167.205 149.365 167.162 149.216 167.082C149.068 167.002 148.942 166.886 148.848 166.746C146.382 163.048 145.485 158.523 146.353 154.164C147.221 149.804 149.784 145.968 153.479 143.497C153.591 143.422 153.718 143.37 153.851 143.344C153.983 143.317 154.12 143.317 154.253 143.344C154.386 143.37 154.512 143.422 154.625 143.498C154.737 143.573 154.834 143.67 154.909 143.782C154.984 143.895 155.037 144.021 155.063 144.154C155.089 144.287 155.089 144.423 155.063 144.556C155.037 144.689 154.984 144.815 154.909 144.928C154.834 145.041 154.737 145.137 154.624 145.212C151.381 147.377 149.131 150.741 148.368 154.564C147.605 158.387 148.392 162.357 150.556 165.6C150.708 165.827 150.764 166.104 150.711 166.372C150.658 166.64 150.502 166.875 150.275 167.027C150.105 167.141 149.904 167.203 149.699 167.206Z" fill="white"/>
<path d="M154.062 164.29C153.894 164.291 153.728 164.25 153.579 164.171C153.431 164.092 153.304 163.977 153.211 163.837C152.371 162.579 151.787 161.167 151.492 159.682C151.198 158.198 151.2 156.67 151.497 155.186C151.793 153.702 152.38 152.291 153.223 151.034C154.066 149.777 155.148 148.699 156.408 147.86C156.635 147.72 156.907 147.672 157.168 147.729C157.428 147.785 157.657 147.94 157.806 148.161C157.954 148.383 158.011 148.653 157.964 148.916C157.917 149.178 157.77 149.412 157.554 149.569C156.52 150.259 155.633 151.145 154.942 152.178C154.251 153.211 153.771 154.37 153.528 155.589C153.285 156.807 153.285 158.062 153.527 159.281C153.77 160.499 154.25 161.659 154.94 162.692C155.09 162.919 155.145 163.196 155.092 163.463C155.039 163.73 154.884 163.965 154.659 164.119C154.482 164.235 154.274 164.295 154.062 164.29Z" fill="white"/>
<path d="M204.668 184.596C204.438 184.595 204.215 184.518 204.034 184.375C203.853 184.233 203.725 184.034 203.671 183.81C203.616 183.587 203.638 183.352 203.733 183.142C203.828 182.932 203.991 182.761 204.195 182.654C208.895 180.226 212.438 176.031 214.046 170.991C215.654 165.951 215.195 160.479 212.77 155.777C212.696 155.656 212.648 155.522 212.629 155.381C212.609 155.241 212.619 155.099 212.657 154.963C212.695 154.826 212.761 154.7 212.851 154.59C212.94 154.48 213.051 154.39 213.177 154.326C213.303 154.261 213.44 154.223 213.581 154.214C213.723 154.205 213.864 154.225 213.997 154.273C214.13 154.321 214.252 154.395 214.355 154.493C214.457 154.59 214.539 154.707 214.595 154.837C215.919 157.406 216.725 160.211 216.965 163.092C217.206 165.972 216.877 168.872 215.996 171.625C215.116 174.379 213.702 176.932 211.834 179.138C209.967 181.345 207.684 183.162 205.114 184.486C204.975 184.554 204.823 184.591 204.668 184.596Z" fill="white"/>
<path d="M202.26 179.938C202.03 179.937 201.807 179.86 201.626 179.717C201.445 179.575 201.318 179.376 201.263 179.153C201.209 178.929 201.231 178.694 201.326 178.484C201.42 178.275 201.583 178.103 201.787 177.996C203.504 177.111 205.029 175.897 206.276 174.422C207.522 172.947 208.466 171.24 209.053 169.4C209.64 167.56 209.858 165.623 209.695 163.698C209.533 161.774 208.992 159.9 208.105 158.185C207.979 157.942 207.956 157.659 208.039 157.399C208.122 157.138 208.305 156.921 208.547 156.796C208.79 156.67 209.073 156.646 209.334 156.729C209.594 156.812 209.811 156.995 209.937 157.238C210.948 159.194 211.563 161.329 211.749 163.523C211.934 165.717 211.685 167.925 211.016 170.023C210.347 172.12 209.271 174.065 207.85 175.746C206.429 177.428 204.69 178.812 202.734 179.821C202.588 179.899 202.425 179.939 202.26 179.938Z" fill="white"/>
<path d="M199.852 175.28C199.623 175.276 199.402 175.196 199.222 175.053C199.043 174.91 198.917 174.712 198.863 174.489C198.809 174.266 198.83 174.031 198.923 173.822C199.017 173.613 199.177 173.44 199.379 173.332C200.483 172.763 201.465 171.983 202.267 171.034C203.07 170.086 203.677 168.989 204.055 167.806C204.433 166.623 204.574 165.376 204.469 164.139C204.365 162.901 204.018 161.696 203.447 160.593C203.321 160.35 203.298 160.067 203.381 159.806C203.464 159.546 203.647 159.329 203.889 159.203C204.132 159.078 204.415 159.054 204.676 159.137C204.936 159.22 205.153 159.403 205.279 159.646C206.675 162.363 206.936 165.523 206.005 168.432C205.074 171.341 203.026 173.762 200.312 175.163C200.17 175.237 200.012 175.277 199.852 175.28Z" fill="white"/>
<path d="M139.505 86.3331H134.264C134.128 86.3366 133.998 86.3881 133.896 86.4785C133.794 86.5689 133.728 86.6923 133.708 86.827L132.611 97.2817C132.603 97.3447 132.609 97.4086 132.627 97.4692C132.646 97.5298 132.678 97.5857 132.72 97.6331C132.762 97.6805 132.814 97.7183 132.872 97.7441C132.93 97.7698 132.993 97.7829 133.057 97.7824H138.298C138.435 97.7787 138.566 97.7263 138.668 97.6345C138.77 97.5427 138.835 97.4176 138.853 97.2817L139.951 86.827C139.959 86.7643 139.953 86.7007 139.934 86.6404C139.915 86.5802 139.884 86.5247 139.841 86.4778C139.799 86.4309 139.747 86.3937 139.689 86.3688C139.631 86.3438 139.568 86.3316 139.505 86.3331Z" fill="#F96161"/>
<path opacity="0.4" d="M139.032 86.3331H134.264C134.128 86.3366 133.998 86.3881 133.896 86.4785C133.794 86.5689 133.728 86.6923 133.708 86.827L132.611 97.2817C132.603 97.3447 132.609 97.4086 132.627 97.4692C132.646 97.5298 132.678 97.5857 132.72 97.6331C132.762 97.6805 132.814 97.7183 132.872 97.7441C132.93 97.7699 132.993 97.7829 133.057 97.7824H137.859C137.995 97.7785 138.125 97.7258 138.226 97.6339C138.327 97.542 138.391 97.417 138.407 97.2817L139.505 86.827C139.515 86.7617 139.51 86.695 139.49 86.632C139.47 86.5691 139.435 86.5115 139.39 86.4638C139.344 86.4161 139.288 86.3795 139.226 86.3569C139.164 86.3342 139.097 86.3261 139.032 86.3331Z" fill="white"/>
<path d="M113.238 279.648C113.924 279.648 114.61 279.545 114.85 279.229C114.909 279.145 114.94 279.044 114.94 278.941C114.94 278.838 114.909 278.738 114.85 278.653C114.75 278.5 114.596 278.389 114.418 278.345C113.485 278.091 111.592 279.202 111.509 279.25C111.488 279.264 111.471 279.283 111.461 279.307C111.452 279.33 111.449 279.356 111.454 279.38C111.459 279.408 111.473 279.433 111.492 279.452C111.512 279.472 111.537 279.485 111.564 279.49C112.117 279.59 112.677 279.642 113.238 279.648ZM114.075 278.571C114.159 278.56 114.244 278.56 114.329 278.571C114.438 278.597 114.533 278.663 114.596 278.756C114.692 278.921 114.665 279.003 114.596 279.044C114.356 279.408 112.95 279.415 111.914 279.271C112.579 278.893 113.315 278.655 114.075 278.571Z" fill="#F96161"/>
<path d="M111.55 279.49H111.605C112.291 279.188 113.54 277.988 113.41 277.357C113.41 277.213 113.266 277.027 112.902 276.993C112.773 276.979 112.643 276.991 112.519 277.029C112.395 277.066 112.28 277.129 112.182 277.213C111.496 277.796 111.42 279.271 111.413 279.353C111.412 279.377 111.418 279.401 111.428 279.423C111.439 279.444 111.455 279.463 111.475 279.476C111.498 279.488 111.525 279.493 111.55 279.49ZM112.813 277.24H112.888C113.128 277.24 113.149 277.357 113.149 277.384C113.231 277.761 112.367 278.708 111.701 279.12C111.743 278.49 111.984 277.89 112.387 277.405C112.506 277.303 112.656 277.245 112.813 277.24Z" fill="#F96161"/>
<path d="M110.988 266.497H105.431V279.36H110.988V266.497Z" fill="#FF8B7B"/>
<path d="M65.1357 273.227L70.6855 273.831L74.3007 261.345L68.751 260.742L65.1357 273.227Z" fill="#FF8B7B"/>
<path d="M73.2648 275.086C73.9508 275.264 74.6368 275.34 74.9455 275.086C75.0209 275.016 75.0722 274.924 75.0919 274.823C75.1116 274.722 75.0988 274.617 75.0553 274.523C75.0271 274.438 74.9822 274.359 74.9234 274.29C74.8645 274.222 74.7928 274.166 74.7123 274.126C73.8548 273.652 71.7282 274.249 71.639 274.27C71.6129 274.277 71.5896 274.292 71.5724 274.313C71.5552 274.334 71.5449 274.359 71.543 274.386C71.5429 274.414 71.5507 274.44 71.5652 274.463C71.5798 274.486 71.6006 274.505 71.6253 274.517C72.1546 274.753 72.7031 274.943 73.2648 275.086ZM74.3487 274.263C74.432 274.283 74.5126 274.313 74.5888 274.352C74.6905 274.4 74.7692 274.487 74.8083 274.592C74.8632 274.777 74.8083 274.846 74.8083 274.887C74.4791 275.168 73.1002 274.832 72.1192 274.434C72.8446 274.235 73.6019 274.179 74.3487 274.27V274.263Z" fill="#F96161"/>
<path d="M71.6527 274.53H71.7076C72.3936 274.4 73.9714 273.563 73.9988 272.932C73.9988 272.781 73.944 272.575 73.5941 272.452C73.4708 272.407 73.34 272.388 73.2092 272.395C73.0784 272.402 72.9504 272.436 72.8326 272.493C72.0232 272.884 71.5704 274.297 71.5498 274.352C71.5384 274.372 71.5323 274.394 71.5323 274.417C71.5323 274.44 71.5384 274.463 71.5498 274.482C71.5615 274.498 71.577 274.511 71.595 274.52C71.613 274.528 71.6329 274.532 71.6527 274.53ZM73.4363 272.685H73.5186C73.745 272.767 73.7382 272.863 73.7382 272.891C73.7382 273.275 72.6406 273.968 71.886 274.194C72.0759 273.601 72.451 273.084 72.9561 272.719C73.1068 272.65 73.2774 272.638 73.4363 272.685Z" fill="#F96161"/>
<path d="M70.9804 273.316L64.9093 271.574C64.805 271.542 64.693 271.549 64.5928 271.591C64.4926 271.634 64.4104 271.71 64.3605 271.807L62.1242 276.245C62.0719 276.358 62.0451 276.48 62.0455 276.604C62.046 276.728 62.0737 276.85 62.1268 276.962C62.1798 277.074 62.2569 277.173 62.3524 277.252C62.448 277.331 62.5598 277.388 62.6798 277.418C64.8064 277.988 65.8697 278.166 68.5383 278.928C70.1778 279.401 73.5186 280.54 75.7893 281.191C78.06 281.843 78.8969 279.71 78.0188 279.243C74.0812 277.151 72.8189 275.463 71.7762 273.899C71.5891 273.616 71.3068 273.409 70.9804 273.316Z" fill="#263238"/>
<path d="M110.926 278.715H104.862C104.753 278.714 104.647 278.752 104.564 278.822C104.481 278.893 104.426 278.991 104.409 279.099L103.524 284.004C103.504 284.126 103.511 284.252 103.545 284.371C103.578 284.491 103.637 284.601 103.717 284.696C103.797 284.79 103.897 284.867 104.009 284.919C104.122 284.971 104.244 284.998 104.368 284.999C106.556 284.958 109.712 284.827 112.463 284.827C115.68 284.827 117.436 285.006 121.209 285.006C123.487 285.006 124.022 282.701 123.055 282.488C118.671 281.541 116.14 281.438 112.284 279.12C111.875 278.868 111.407 278.729 110.926 278.715Z" fill="#263238"/>
<path opacity="0.2" d="M110.988 266.497H105.431V273.131H110.988V266.497Z" fill="black"/>
<path opacity="0.2" d="M68.7509 260.749L74.3007 261.345L72.2907 268.274L66.885 267.183L68.7509 260.749Z" fill="black"/>
<path d="M101.85 138.572C101.85 138.572 98.784 180.514 96.04 196.416C93.0147 213.833 75.412 267.163 75.412 267.163L65.3278 265.317C65.3278 265.317 78.0393 215.239 79.4456 197.993C80.9754 179.279 82.8139 140.705 82.8139 140.705L101.85 138.572Z" fill="#F96161"/>
<path opacity="0.3" d="M96.6849 155.996C97.2337 153.691 98.4959 156.593 99.964 161.622C98.8526 174.066 97.4052 188.478 96.0195 196.422C95.7108 198.199 95.2443 200.353 94.6475 202.795C95.1757 185.042 95.1963 162.232 96.6849 155.996Z" fill="black"/>
<path d="M112.326 137.433C112.326 137.433 116.353 179.595 116.49 196.532C116.634 214.155 113.005 271.848 113.005 271.848H103.586C103.586 271.848 100.76 215.184 99.5867 197.877C98.3039 179.012 92.905 139.567 92.905 139.567L112.326 137.433Z" fill="#F96161"/>
<path d="M77.518 263.767C77.5592 263.767 75.9334 267.423 75.9334 267.423L64.5869 265.365L65.2729 261.97L77.518 263.767Z" fill="#263238"/>
<path d="M114.651 268.096C114.692 268.096 114.288 272.006 114.288 272.006H102.845L102.379 268.521L114.651 268.096Z" fill="#263238"/>
<path d="M83.0883 99.8542C82.3337 101.315 81.5037 102.852 80.7491 104.368L78.4441 108.937C77.6964 110.46 76.9624 111.99 76.2558 113.519C75.5492 115.049 74.8838 116.572 74.3144 118.095L74.2595 115.694C74.6605 116.927 75.1417 118.132 75.7001 119.302C75.9677 119.906 76.3107 120.482 76.6056 121.079C76.9006 121.676 77.2916 122.245 77.6415 122.808C78.3694 123.971 79.157 125.095 80.0013 126.176C80.4267 126.718 80.852 127.274 81.3047 127.795C81.7575 128.316 82.2514 128.858 82.6767 129.304L82.8139 129.455C83.13 129.802 83.3121 130.25 83.3278 130.719C83.3434 131.189 83.1915 131.648 82.8993 132.015C82.6071 132.383 82.1937 132.634 81.733 132.724C81.2724 132.814 80.7947 132.738 80.3855 132.508C79.6764 132.108 78.9894 131.671 78.3275 131.198C77.6415 130.745 77.0378 130.271 76.4204 129.771C75.1845 128.757 74.0243 127.654 72.9493 126.471C71.8518 125.269 70.8538 123.979 69.9652 122.616C69.052 121.226 68.258 119.762 67.5916 118.239C67.298 117.593 67.2469 116.862 67.4475 116.181L67.5436 115.859C68.0649 114.068 68.648 112.333 69.2929 110.631C69.9377 108.93 70.6237 107.263 71.3509 105.623C72.078 103.984 72.8395 102.365 73.6421 100.767C74.4447 99.1682 75.2542 97.6041 76.1803 96.0057C76.6921 95.0909 77.5442 94.4151 78.5515 94.125C79.5588 93.8349 80.6398 93.954 81.5598 94.4565C82.4797 94.9589 83.1642 95.8041 83.4646 96.8084C83.7649 97.8126 83.6568 98.8948 83.1638 99.8199L83.0883 99.8542Z" fill="#FF8B7B"/>
<path d="M87.0259 97.412C87.3003 102.646 81.3596 112.257 81.3596 112.257L69.1282 106.145C70.6146 101.809 72.915 97.7977 75.9059 94.325C82.3748 87.1769 86.7721 92.61 87.0259 97.412Z" fill="#263238"/>
<path d="M78.7391 131.527L81.2019 135.643L86.3263 132.364C85.4313 130.76 84.0296 129.498 82.3406 128.776C81.9501 128.651 81.5278 128.67 81.1502 128.83C80.7727 128.99 80.4649 129.28 80.2826 129.647L78.7391 131.527Z" fill="#FF8B7B"/>
<path d="M83.2529 137.399L85.6333 136.953C85.8337 136.916 86.0248 136.84 86.1955 136.728C86.3662 136.617 86.5132 136.473 86.628 136.305C86.7428 136.136 86.8232 135.947 86.8644 135.747C86.9056 135.548 86.9069 135.342 86.8681 135.142L86.3262 132.398L81.2018 135.677L81.5448 136.507C81.6851 136.828 81.931 137.092 82.2417 137.254C82.5524 137.416 82.9092 137.467 83.2529 137.399Z" fill="#FF8B7B"/>
<path d="M97.707 71.1108C97.755 71.5567 98.0363 71.9065 98.3244 71.8791C98.6125 71.8516 98.8046 71.4743 98.7497 71.0284C98.6948 70.5825 98.4204 70.2327 98.1323 70.2533C97.8442 70.2738 97.6521 70.658 97.707 71.1108Z" fill="#263238"/>
<path d="M97.9951 71.9065C98.689 73.2389 99.5538 74.475 100.568 75.5835C99.8816 76.3861 98.5096 76.1529 98.5096 76.1529L97.9951 71.9065Z" fill="#FF5652"/>
<path d="M95.7862 68.7441C95.8218 68.7494 95.8582 68.7466 95.8927 68.7359C95.9271 68.7252 95.9587 68.7069 95.9851 68.6823C96.2229 68.4596 96.5118 68.2987 96.8264 68.2138C97.141 68.1288 97.4717 68.1225 97.7893 68.1953C97.8217 68.2056 97.8559 68.2092 97.8898 68.2057C97.9236 68.2022 97.9564 68.1918 97.986 68.175C98.0157 68.1583 98.0415 68.1356 98.062 68.1084C98.0824 68.0812 98.097 68.05 98.1048 68.0169C98.122 67.9487 98.1124 67.8766 98.0779 67.8153C98.0435 67.754 97.9868 67.7083 97.9196 67.6876C97.5185 67.5919 97.1001 67.5956 96.7008 67.6984C96.3015 67.8013 95.9334 68.0001 95.6284 68.2776C95.6028 68.3019 95.5825 68.3312 95.5686 68.3636C95.5548 68.3961 95.5476 68.431 95.5476 68.4662C95.5476 68.5015 95.5548 68.5364 95.5686 68.5688C95.5825 68.6013 95.6028 68.6305 95.6284 68.6549C95.6474 68.6795 95.6712 68.7001 95.6983 68.7154C95.7254 68.7307 95.7552 68.7405 95.7862 68.7441Z" fill="#263238"/>
<path d="M83.8772 76.0774C85.1875 80.0493 86.9299 87.369 84.4466 90.305C84.4466 90.305 86.0793 94.3044 93.5978 93.6664C101.878 92.9804 97.0278 89.2417 97.0278 89.2417C92.3767 88.5557 92.0612 85.2012 92.4453 81.9976L83.8772 76.0774Z" fill="#FF8B7B"/>
<path d="M82.6698 91.7525C81.8946 90.5108 81.0303 89.0908 82.4983 88.5626C84.1104 87.9795 93.1656 87.0328 96.3898 87.8286C99.614 88.6243 98.9554 91.2586 98.9554 91.2586L82.6698 91.7525Z" fill="#F96161"/>
<path d="M109.184 93.4263C110.364 94.5102 111.64 95.7107 112.909 96.8083C114.178 97.9059 115.461 99.031 116.75 100.115C118.04 101.199 119.357 102.221 120.681 103.216C122.005 104.21 123.35 105.116 124.694 105.96L121.95 105.699C123.091 105.395 124.17 104.896 125.14 104.224C126.274 103.431 127.326 102.528 128.282 101.528C129.312 100.474 130.276 99.3585 131.17 98.1872C131.63 97.5904 132.089 96.9867 132.542 96.3624C132.995 95.7382 133.406 95.0796 133.784 94.5034L133.859 94.3936C134.12 93.9957 134.515 93.7047 134.972 93.5737C135.429 93.4427 135.918 93.4805 136.35 93.6801C136.782 93.8797 137.127 94.2279 137.324 94.6612C137.52 95.0944 137.554 95.5838 137.42 96.04C137.159 96.9318 136.884 97.6933 136.569 98.489C136.253 99.2848 135.924 100.067 135.554 100.835C134.802 102.402 133.924 103.905 132.926 105.328C131.879 106.838 130.659 108.219 129.29 109.444C127.776 110.797 126.018 111.849 124.111 112.545C123.702 112.689 123.268 112.751 122.834 112.726C122.401 112.702 121.977 112.591 121.587 112.401L121.36 112.284C119.657 111.447 118.003 110.513 116.407 109.486C114.85 108.477 113.341 107.428 111.887 106.303C110.432 105.178 109.026 104.039 107.654 102.873C106.282 101.706 104.965 100.485 103.627 99.1202C102.915 98.3777 102.519 97.3884 102.52 96.3599C102.522 95.3313 102.922 94.3434 103.636 93.6033C104.351 92.8633 105.324 92.4286 106.352 92.3905C107.38 92.3524 108.382 92.7138 109.149 93.3989L109.184 93.4263Z" fill="#FF8B7B"/>
<path d="M104.992 89.866C104.992 89.866 111.907 96.5751 112.71 138.071C101.652 140.753 91.0117 141.741 82.7934 140.699C82.4024 135.492 81.8193 117.423 76.5371 98.3724C76.3102 97.57 76.2526 96.7293 76.3679 95.9034C76.4831 95.0776 76.7689 94.2848 77.2068 93.5752C77.6448 92.8657 78.2255 92.2549 78.9121 91.7817C79.5986 91.3085 80.3761 90.9832 81.195 90.8264C82.2446 90.6206 83.3491 90.4354 84.4467 90.2913C88.6164 89.6949 92.8172 89.3399 97.0279 89.228C99.6946 89.2498 102.356 89.463 104.992 89.866Z" fill="#263238"/>
<path d="M99.6278 97.0964C100.314 102.289 109.232 112.271 109.232 112.271L119.817 101.295C116.672 97.9937 113.273 94.9453 109.65 92.1778C101.892 86.3811 99.0104 92.2807 99.6278 97.0964Z" fill="#263238"/>
<path d="M136.734 97.8648L140.273 94.62L136.034 90.2639C134.632 91.458 133.666 93.0846 133.29 94.8875C133.248 95.2997 133.358 95.713 133.597 96.0509C133.837 96.3888 134.191 96.6287 134.593 96.726L136.734 97.8648Z" fill="#FF8B7B"/>
<path d="M141.577 92.2601L140.664 90.0169C140.587 89.8244 140.472 89.6494 140.326 89.5022C140.18 89.355 140.006 89.2387 139.814 89.16C139.622 89.0813 139.416 89.0419 139.209 89.0442C139.001 89.0464 138.796 89.0903 138.606 89.1731L136.006 90.2639L140.246 94.62L140.987 94.1192C141.284 93.9246 141.505 93.6333 141.613 93.2947C141.72 92.956 141.707 92.5906 141.577 92.2601Z" fill="#FF8B7B"/>
<path d="M82.8208 71.344C83.8155 76.832 84.1174 80.0836 87.2044 82.6973C91.8486 86.6281 98.2558 83.5685 98.8664 77.9639C99.4426 72.9149 97.7208 64.7858 92.1367 63.016C86.5527 61.2461 81.8261 65.856 82.8208 71.344Z" fill="#FF8B7B"/>
<path d="M93.639 73.3197C95.5666 73.7587 97.069 71.5292 97.2748 70.8981C96.335 70.9873 94.668 70.5071 94.3387 70.0818C95.3677 70.1709 96.3624 68.9018 96.4859 68.4148C95.3941 68.204 94.4272 67.5766 93.7899 66.6655C95.4569 66.6312 97.46 63.6951 95.6284 61.0677C93.7967 58.4403 86.141 60.6424 85.064 58.7696C83.4587 59.7026 84.8856 60.9442 84.8856 60.9442C84.8856 60.9442 74.0537 63.0022 79.0478 67.18C75.3845 67.5093 74.87 71.8379 77.9227 74.04C80.9754 76.242 81.1332 77.6964 79.919 77.518C80.406 78.451 82.5806 78.5744 82.7041 77.6689C83.2186 79.5691 84.7004 82.1416 88.1167 81.7232C91.5329 81.3047 94.8806 76.5233 93.639 73.3197Z" fill="#263238"/>
<path d="M79.9945 66.542C77.4151 66.8987 76.2421 65.4444 76.8869 64.1616C73.6902 65.7943 77.1819 69.4026 79.9945 66.542Z" fill="#263238"/>
<path d="M90.9705 72.4828C91.4144 73.6325 92.1996 74.6187 93.2206 75.3091C94.5926 76.2146 95.8342 75.3091 95.601 73.9371C95.3883 72.6748 94.4211 70.6786 92.9942 70.3219C92.6987 70.2249 92.3816 70.2143 92.0803 70.2914C91.779 70.3685 91.506 70.5301 91.2934 70.7571C91.0808 70.9841 90.9375 71.2671 90.8803 71.5728C90.8231 71.8786 90.8544 72.1942 90.9705 72.4828Z" fill="#FF8B7B"/>
<path d="M265.331 265.839C260.255 253.861 258.204 239.771 264.014 240.354C269.975 240.93 269.276 262.169 270.243 264.501C268.384 266.099 265.331 265.839 265.331 265.839Z" fill="#F96161"/>
<path d="M266.978 243.112C265.729 247.68 264.405 254.739 263.397 260.721C263.973 262.436 264.625 264.151 265.331 265.839C265.331 265.839 268.377 266.099 270.25 264.501C269.481 262.663 269.756 249.052 266.978 243.112Z" fill="#263238"/>
<path d="M267.005 263.644C265.414 238.193 269.749 214.601 281.164 215.665C290.96 216.584 276.678 259.431 276.952 264.371C272.466 266.113 267.005 263.644 267.005 263.644Z" fill="#F96161"/>
<path d="M274.4 263.479C276.19 245.183 285.843 223.835 289.986 230.969C295.248 240.025 281.754 261.592 281.39 265.139C278.015 265.866 274.4 263.479 274.4 263.479Z" fill="#F96161"/>
<path d="M272.596 222.463C271.437 222.271 270.792 221.551 270.867 220.528C270.949 219.376 271.896 218.23 272.774 218.217C273.2 218.217 273.913 218.436 274.091 220.021L273.405 220.103C273.323 219.349 273.097 218.903 272.795 218.903C272.328 218.903 271.615 219.753 271.56 220.576C271.512 221.262 271.896 221.647 272.713 221.784L272.596 222.463Z" fill="#F96161"/>
<path d="M284.916 227.066C284.418 227.026 283.941 226.842 283.544 226.538L283.915 225.968C284.553 226.38 285.047 226.49 285.239 226.257C285.527 225.886 285.328 224.802 284.731 224.233C284.251 223.773 283.689 223.808 283.064 224.356L282.618 223.835C282.779 223.654 282.975 223.508 283.193 223.404C283.412 223.301 283.649 223.243 283.891 223.234C284.133 223.225 284.374 223.265 284.599 223.352C284.825 223.439 285.031 223.57 285.205 223.739C286.042 224.535 286.323 225.989 285.774 226.682C285.673 226.81 285.542 226.912 285.392 226.979C285.243 227.046 285.08 227.076 284.916 227.066Z" fill="#F96161"/>
<path d="M268.103 237.425C267.687 237.454 267.275 237.331 266.944 237.079C266.613 236.826 266.386 236.461 266.305 236.053C266.031 234.934 266.58 233.556 267.417 233.267C267.808 233.137 268.562 233.123 269.221 234.585L268.59 234.873C268.281 234.187 267.904 233.816 267.636 233.919C267.197 234.07 266.779 235.092 266.95 235.888C267.108 236.574 267.636 236.807 268.418 236.684L268.521 237.37C268.383 237.4 268.243 237.418 268.103 237.425Z" fill="#F96161"/>
<path d="M260.797 251.632C260.462 251.639 260.133 251.546 259.853 251.363C259.573 251.181 259.354 250.918 259.226 250.61C258.746 249.56 259.027 248.099 259.788 247.66C260.152 247.454 260.893 247.303 261.812 248.62L261.249 249.011C260.81 248.387 260.392 248.106 260.131 248.257C259.726 248.49 259.507 249.574 259.85 250.315C260.131 250.925 260.666 251.09 261.441 250.815L261.668 251.467C261.389 251.572 261.094 251.628 260.797 251.632Z" fill="#F96161"/>
<path d="M272.953 230.921C272.882 230.921 272.812 230.9 272.754 230.86C272.327 230.624 272.001 230.242 271.835 229.784C271.668 229.326 271.673 228.824 271.848 228.369C272.047 227.914 272.387 227.534 272.818 227.287C273.249 227.04 273.749 226.938 274.242 226.997C274.668 227.073 275.662 227.45 275.731 229.275C275.731 229.366 275.695 229.453 275.63 229.517C275.566 229.582 275.479 229.618 275.388 229.618C275.297 229.618 275.21 229.582 275.145 229.517C275.081 229.453 275.045 229.366 275.045 229.275C275.004 228.321 274.681 227.745 274.119 227.642C273.777 227.615 273.436 227.695 273.142 227.871C272.848 228.046 272.617 228.31 272.479 228.623C272.232 229.206 272.479 229.796 273.165 230.283C273.225 230.325 273.27 230.385 273.294 230.455C273.317 230.524 273.318 230.599 273.296 230.669C273.273 230.739 273.23 230.799 273.17 230.842C273.111 230.885 273.04 230.908 272.966 230.908L272.953 230.921Z" fill="white"/>
<path d="M281.082 249.436C281.003 249.438 280.927 249.411 280.866 249.36C280.806 249.31 280.766 249.24 280.752 249.162C280.742 249.118 280.741 249.073 280.749 249.029C280.757 248.985 280.773 248.942 280.797 248.905C280.822 248.867 280.853 248.835 280.89 248.809C280.927 248.784 280.969 248.766 281.013 248.757C281.946 248.565 282.461 248.147 282.474 247.577C282.444 247.236 282.307 246.913 282.085 246.653C281.863 246.392 281.565 246.207 281.233 246.123C280.615 245.972 280.066 246.308 279.703 247.063C279.683 247.103 279.655 247.14 279.622 247.17C279.588 247.199 279.548 247.222 279.506 247.237C279.463 247.252 279.418 247.258 279.373 247.255C279.328 247.252 279.284 247.241 279.243 247.221C279.203 247.201 279.166 247.173 279.137 247.139C279.107 247.106 279.084 247.066 279.069 247.024C279.055 246.981 279.048 246.936 279.051 246.891C279.054 246.846 279.066 246.802 279.085 246.761C279.254 246.306 279.577 245.925 279.999 245.685C280.421 245.446 280.913 245.363 281.39 245.451C281.875 245.57 282.308 245.842 282.627 246.226C282.945 246.61 283.132 247.086 283.16 247.584C283.16 248.016 282.941 249.059 281.157 249.43L281.082 249.436Z" fill="white"/>
<path d="M290.727 243.653C290.329 243.653 289.801 243.42 289.211 242.535L289.78 242.151C290.206 242.782 290.61 243.07 290.878 242.926C291.289 242.707 291.564 241.623 291.2 240.868C290.94 240.258 290.404 240.079 289.622 240.333L289.41 239.682C290.521 239.318 291.427 239.682 291.831 240.601C292.291 241.657 291.982 243.112 291.207 243.53C291.061 243.613 290.895 243.655 290.727 243.653Z" fill="#F96161"/>
<path d="M288.683 270.195C288.687 266.534 287.375 262.994 284.985 260.22C285.22 260.186 285.434 260.069 285.59 259.89C285.746 259.712 285.833 259.483 285.836 259.246C285.834 258.978 285.726 258.722 285.536 258.533C285.346 258.344 285.088 258.238 284.82 258.238H261.853C261.603 258.241 261.363 258.338 261.181 258.509C260.999 258.681 260.887 258.914 260.868 259.164C260.849 259.413 260.924 259.66 261.079 259.857C261.233 260.054 261.455 260.186 261.702 260.227C260.2 261.972 259.111 264.033 258.515 266.257C257.92 268.481 257.833 270.81 258.262 273.072C258.691 275.334 259.625 277.47 260.994 279.321C262.363 281.172 264.131 282.691 266.168 283.764C265.946 283.878 265.769 284.064 265.666 284.291C265.562 284.518 265.538 284.774 265.598 285.016C265.657 285.259 265.797 285.474 265.993 285.628C266.19 285.781 266.433 285.864 266.683 285.863H279.984C280.278 285.861 280.56 285.744 280.768 285.536C280.976 285.328 281.094 285.046 281.095 284.752C281.094 284.549 281.038 284.349 280.933 284.175C280.828 284.002 280.678 283.859 280.499 283.764C282.969 282.461 285.036 280.509 286.478 278.118C287.921 275.727 288.683 272.987 288.683 270.195Z" fill="#263238"/>
</svg>
