<svg width="25" height="24" viewBox="0 0 25 24" fill="none" xmlns="http://www.w3.org/2000/svg">
<g clip-path="url(#clip0_734_597)">
<path d="M20.125 10.5H18.625V12H20.125C20.7215 12.0007 21.2935 12.2379 21.7153 12.6597C22.1371 13.0815 22.3743 13.6535 22.375 14.25V17.25H23.875V14.25C23.8738 13.2558 23.4784 12.3026 22.7754 11.5996C22.0724 10.8966 21.1192 10.5012 20.125 10.5Z" fill="black"/>
<path d="M18.625 3C19.07 3 19.505 3.13196 19.875 3.37919C20.245 3.62643 20.5334 3.97783 20.7037 4.38896C20.874 4.8001 20.9186 5.2525 20.8318 5.68895C20.745 6.12541 20.5307 6.52632 20.216 6.84099C19.9013 7.15566 19.5004 7.36995 19.064 7.45677C18.6275 7.54358 18.1751 7.49903 17.764 7.32873C17.3528 7.15843 17.0014 6.87004 16.7542 6.50003C16.507 6.13002 16.375 5.69501 16.375 5.25C16.375 4.65326 16.6121 4.08097 17.034 3.65901C17.456 3.23705 18.0283 3 18.625 3ZM18.625 1.5C17.8833 1.5 17.1583 1.71993 16.5416 2.13199C15.9249 2.54404 15.4443 3.12971 15.1605 3.81494C14.8766 4.50016 14.8024 5.25416 14.9471 5.98159C15.0918 6.70902 15.4489 7.3772 15.9734 7.90165C16.4978 8.4261 17.166 8.78325 17.8934 8.92795C18.6208 9.07264 19.3748 8.99838 20.0601 8.71455C20.7453 8.43072 21.331 7.95007 21.743 7.33339C22.1551 6.7167 22.375 5.99168 22.375 5.25C22.375 4.25544 21.9799 3.30161 21.2767 2.59835C20.5734 1.89509 19.6196 1.5 18.625 1.5Z" fill="black"/>
<path d="M17.875 22.5H16.375V21C16.3743 20.4035 16.1371 19.8315 15.7153 19.4097C15.2935 18.9879 14.7215 18.7507 14.125 18.75H11.125C10.5285 18.7507 9.95655 18.9879 9.53473 19.4097C9.11292 19.8315 8.87566 20.4035 8.875 21V22.5H7.375V21C7.37617 20.0058 7.77164 19.0527 8.47464 18.3496C9.17765 17.6466 10.1308 17.2512 11.125 17.25H14.125C15.1192 17.2512 16.0723 17.6466 16.7754 18.3496C17.4784 19.0527 17.8738 20.0058 17.875 21V22.5Z" fill="black"/>
<path d="M12.625 9.75C13.07 9.75 13.505 9.88196 13.875 10.1292C14.245 10.3764 14.5334 10.7278 14.7037 11.139C14.874 11.5501 14.9186 12.0025 14.8318 12.439C14.745 12.8754 14.5307 13.2763 14.216 13.591C13.9013 13.9057 13.5004 14.12 13.064 14.2068C12.6275 14.2936 12.1751 14.249 11.764 14.0787C11.3528 13.9084 11.0014 13.62 10.7542 13.25C10.507 12.88 10.375 12.445 10.375 12C10.375 11.4033 10.6121 10.831 11.034 10.409C11.456 9.98705 12.0283 9.75 12.625 9.75ZM12.625 8.25C11.8833 8.25 11.1583 8.46993 10.5416 8.88199C9.92493 9.29404 9.44428 9.87971 9.16045 10.5649C8.87662 11.2502 8.80236 12.0042 8.94706 12.7316C9.09175 13.459 9.4489 14.1272 9.97335 14.6517C10.4978 15.1761 11.166 15.5333 11.8934 15.6779C12.6208 15.8226 13.3748 15.7484 14.0601 15.4645C14.7453 15.1807 15.331 14.7001 15.743 14.0834C16.1551 13.4667 16.375 12.7417 16.375 12C16.375 11.0054 15.9799 10.0516 15.2767 9.34835C14.5734 8.64509 13.6196 8.25 12.625 8.25Z" fill="black"/>
<path d="M6.625 10.5H5.125C4.1308 10.5012 3.17765 10.8966 2.47464 11.5996C1.77164 12.3027 1.37617 13.2558 1.375 14.25V17.25H2.875V14.25C2.87566 13.6535 3.11292 13.0815 3.53473 12.6597C3.95655 12.2379 4.52846 12.0007 5.125 12H6.625V10.5Z" fill="black"/>
<path d="M6.625 3C7.07001 3 7.50502 3.13196 7.87503 3.37919C8.24505 3.62643 8.53343 3.97783 8.70373 4.38896C8.87403 4.8001 8.91859 5.2525 8.83177 5.68895C8.74495 6.12541 8.53066 6.52632 8.21599 6.84099C7.90132 7.15566 7.50041 7.36995 7.06395 7.45677C6.6275 7.54358 6.1751 7.49903 5.76396 7.32873C5.35283 7.15843 5.00143 6.87004 4.7542 6.50003C4.50696 6.13002 4.375 5.69501 4.375 5.25C4.375 4.65326 4.61205 4.08097 5.03401 3.65901C5.45597 3.23705 6.02826 3 6.625 3ZM6.625 1.5C5.88332 1.5 5.1583 1.71993 4.54161 2.13199C3.92493 2.54404 3.44428 3.12971 3.16045 3.81494C2.87662 4.50016 2.80236 5.25416 2.94706 5.98159C3.09175 6.70902 3.4489 7.3772 3.97335 7.90165C4.4978 8.4261 5.16598 8.78325 5.89341 8.92795C6.62084 9.07264 7.37484 8.99838 8.06006 8.71455C8.74529 8.43072 9.33096 7.95007 9.74301 7.33339C10.1551 6.7167 10.375 5.99168 10.375 5.25C10.375 4.25544 9.97991 3.30161 9.27665 2.59835C8.57339 1.89509 7.61956 1.5 6.625 1.5Z" fill="black"/>
</g>
<defs>
<clipPath id="clip0_734_597">
<rect width="24" height="24" fill="white" transform="translate(0.625)"/>
</clipPath>
</defs>
</svg>
