<svg width="24" height="24" viewBox="0 0 24 24" fill="none" xmlns="http://www.w3.org/2000/svg">
<path d="M23.6477 12.366L20.1381 8.85631C19.6846 8.40279 18.9493 8.40279 18.4958 8.85631L17.7943 9.55773V1.16129C17.7943 0.519948 17.2744 0 16.6331 0H1.92338C1.28203 0 0.762085 0.519948 0.762085 1.16129V19.7421C0.762085 20.3834 1.28203 20.9034 1.92338 20.9034H8.50402V22.8387C8.50402 23.4801 9.02397 24 9.66531 24H13.175C13.483 24 13.7784 23.8776 13.9962 23.6598L23.6478 14.0082C24.1013 13.5547 24.1013 12.8195 23.6477 12.366ZM3.08467 2.32258H15.4718V11.8803L8.8442 18.5078C8.82082 18.5311 8.79922 18.5557 8.77808 18.5807H3.08467V2.32258ZM12.694 21.6774H10.8266V19.81L19.3169 11.3197L21.1843 13.1871L12.694 21.6774Z" fill="black"/>
</svg>
